HIERARCHY
ROOT Hips
{
	OFFSET 0.000000 0.000000 0.000000
	CHANNELS 6 Xposition Yposition Zposition Zrotation Yrotation Xrotation 
	JOINT LHipJoint
	{
		OFFSET 0.000000 0.000000 0.000000
		CHANNELS 3 Zrotation Yrotation Xrotation
		JOINT LeftUpLeg
		{
			OFFSET 1.363060 -1.794630 0.839290
			CHANNELS 3 Zrotation Yrotation Xrotation
			JOINT LeftLeg
			{
				OFFSET 2.448110 -6.726130 0.000000
				CHANNELS 3 Zrotation Yrotation Xrotation
				JOINT LeftFoot
				{
					OFFSET 2.562200 -7.039590 0.000000
					CHANNELS 3 Zrotation Yrotation Xrotation
					JOINT LeftToeBase
					{
						OFFSET 0.157640 -0.433110 2.322550
						CHANNELS 3 Zrotation Yrotation Xrotation
						End Site
						{
							OFFSET 0.000000 0.000000 0.000000
						}
					}
				}
			}
		}
	}
	JOINT RHipJoint
	{
		OFFSET 0.000000 0.000000 0.000000
		CHANNELS 3 Zrotation Yrotation Xrotation
		JOINT RightUpLeg
		{
			OFFSET -1.305520 -1.794630 0.839290
			CHANNELS 3 Zrotation Yrotation Xrotation
			JOINT RightLeg
			{
				OFFSET -2.542530 -6.985550 0.000000
				CHANNELS 3 Zrotation Yrotation Xrotation
				JOINT RightFoot
				{
					OFFSET -2.568260 -7.056230 0.000000
					CHANNELS 3 Zrotation Yrotation Xrotation
					JOINT RightToeBase
					{
						OFFSET -0.164730 -0.452590 2.363150
						CHANNELS 3 Zrotation Yrotation Xrotation
						End Site
						{
							OFFSET 0.000000 0.000000 0.000000
						}
					}
				}
			}
		}
	}
	JOINT LowerBack
	{
		OFFSET 0.000000 0.000000 0.000000
		CHANNELS 3 Zrotation Yrotation Xrotation
		JOINT Spine
		{
			OFFSET 0.028270 2.035590 -0.193380
			CHANNELS 3 Zrotation Yrotation Xrotation
			JOINT Spine1
			{
				OFFSET 0.056720 2.048850 -0.042750
				CHANNELS 3 Zrotation Yrotation Xrotation
				JOINT Neck
				{
					OFFSET 0.000000 0.000000 0.000000
					CHANNELS 3 Zrotation Yrotation Xrotation
					JOINT Neck1
					{
						OFFSET -0.054170 1.746240 0.172020
						CHANNELS 3 Zrotation Yrotation Xrotation
						JOINT Head
						{
							OFFSET 0.104070 1.761360 -0.123970
							CHANNELS 3 Zrotation Yrotation Xrotation
							End Site
							{
								OFFSET 0.000000 0.000000 0.000000
							}
						}
					}
				}
				JOINT LeftShoulder
				{
					OFFSET 0.000000 0.000000 0.000000
					CHANNELS 3 Zrotation Yrotation Xrotation
					JOINT LeftArm
					{
						OFFSET 3.362410 1.200890 -0.311210
						CHANNELS 3 Zrotation Yrotation Xrotation
						JOINT LeftForeArm
						{
							OFFSET 4.983000 -0.000000 -0.000000
							CHANNELS 3 Zrotation Yrotation Xrotation
							JOINT LeftHand
							{
								OFFSET 3.483560 -0.000000 -0.000000
								CHANNELS 3 Zrotation Yrotation Xrotation
								JOINT LeftFingerBase
								{
									OFFSET 0.000000 0.000000 0.000000
									CHANNELS 3 Zrotation Yrotation Xrotation
									JOINT LeftHandIndex1
									{
										OFFSET 0.715260 -0.000000 -0.000000
										CHANNELS 3 Zrotation Yrotation Xrotation
										End Site
										{
											OFFSET 0.000000 0.000000 0.000000
										}
									}
								}
								JOINT LThumb
								{
									OFFSET 0.000000 0.000000 0.000000
									CHANNELS 3 Zrotation Yrotation Xrotation
									End Site
									{
										OFFSET 0.000000 0.000000 0.000000
									}
								}
							}
						}
					}
				}
				JOINT RightShoulder
				{
					OFFSET 0.000000 0.000000 0.000000
					CHANNELS 3 Zrotation Yrotation Xrotation
					JOINT RightArm
					{
						OFFSET -3.136600 1.374050 -0.404650
						CHANNELS 3 Zrotation Yrotation Xrotation
						JOINT RightForeArm
						{
							OFFSET -5.241900 -0.000000 -0.000000
							CHANNELS 3 Zrotation Yrotation Xrotation
							JOINT RightHand
							{
								OFFSET -3.444170 -0.000000 -0.000000
								CHANNELS 3 Zrotation Yrotation Xrotation
								JOINT RightFingerBase
								{
									OFFSET 0.000000 0.000000 0.000000
									CHANNELS 3 Zrotation Yrotation Xrotation
									JOINT RightHandIndex1
									{
										OFFSET -0.622530 -0.000000 -0.000000
										CHANNELS 3 Zrotation Yrotation Xrotation
										End Site
										{
											OFFSET 0.000000 0.000000 0.000000
										}
									}
								}
								JOINT RThumb
								{
									OFFSET 0.000000 0.000000 0.000000
									CHANNELS 3 Zrotation Yrotation Xrotation
									End Site
									{
										OFFSET 0.000000 0.000000 0.000000
									}
								}
							}
						}
					}
				}
			}
		}
	}
}
MOTION
Frames: 4
Frame Time: 0.008333
12.085472 16.854740 -16.023605 4.892796 -29.464675 -1.456432 6.987139 3.146578 -1.141853 -1.631017 36.866468 -55.429506 15.879776 21.358216 70.669849 1.525378 3.490490 29.942988 0.419500 -4.157400 -11.520000 -5.277300 -4.458750 0.974921 3.732248 -28.013285 -35.121519 -8.946759 -16.904666 53.164177 -0.264050 -3.367839 2.320576 -0.566200 -4.819100 13.393400 -0.474833 0.835420 24.119262 0.658321 0.221774 -4.589086 -5.020465 0.421484 -23.180118 9.409116 15.990805 7.301535 -5.525769 21.996984 -11.304701 -13.120900 5.568400 -9.190300 -4.222594 -13.662385 -1.135791 -2.471908 19.907467 -50.167163 94.539781 -77.676373 -88.846914 4.911058 -7.233992 -40.427873 31.828386 15.880042 15.952200 -7.125000 0.000000 0.000000 4.202500 59.954500 1.535300 8.055392 10.516692 0.316953 -1.042508 -10.824345 -49.385412 -108.525511 73.581192 -93.864228 -3.318560 7.519438 -17.263846 -35.137429 11.020655 -0.735900 7.125000 0.000000 0.000000 -6.516700 -28.670800 -2.606500 
12.076621 16.807180 -16.039174 5.075516 -29.468438 -1.468215 7.014000 3.150675 -1.131752 -1.381187 36.707438 -55.168074 15.646630 21.288357 70.159475 1.785816 2.465076 30.842463 0.339000 -3.741800 -10.351300 -5.314896 -4.432029 0.939805 3.916760 -28.170355 -35.565585 -9.064423 -17.002560 53.554175 -0.141164 -3.668869 0.908274 -0.650300 -5.158500 14.361200 -0.860296 0.947127 24.192857 0.656621 0.258210 -4.612678 -4.907757 0.468151 -23.246533 9.266356 16.018665 7.138393 -5.528716 21.921651 -11.508227 -13.053400 5.518600 -9.237600 -4.343679 -13.589715 -1.176322 -2.706761 19.999209 -50.586580 100.543004 -77.521762 -90.299574 4.485910 -6.977882 -40.657715 33.585693 15.864288 16.814900 -7.125000 0.000000 0.000000 6.647700 59.947500 2.431400 8.188036 10.357950 0.463353 -0.449674 -11.213049 -49.043456 -110.044782 72.913490 -94.197643 -3.429709 7.118685 -16.900430 -37.050221 10.852365 -0.817900 7.125000 0.000000 0.000000 -7.757900 -28.572600 -3.128900 
12.071076 16.767510 -16.055383 5.081679 -29.520685 -1.311120 7.032516 3.148060 -1.131624 -1.128987 36.520924 -54.834172 15.392780 21.190435 69.376496 1.940340 2.348859 31.766805 0.125900 -2.287000 -6.299500 -5.336945 -4.369825 0.906093 4.102831 -28.006697 -35.967961 -9.192465 -17.107390 54.030705 -0.081208 -3.800281 0.003180 -0.672700 -5.244800 14.608200 -1.106410 1.035635 24.136272 0.650356 0.309825 -4.636289 -4.877431 0.508454 -23.193007 9.267707 15.951433 6.901646 -5.580771 21.736960 -11.719503 -13.084500 5.397500 -9.319700 -4.436318 -13.422774 -0.924227 -3.064331 19.999328 -50.564734 105.561317 -76.410631 -91.655320 4.090281 -6.692963 -40.588143 35.243248 15.510169 17.373400 -7.125000 0.000000 0.000000 8.905600 59.524000 3.174000 8.342400 10.171717 0.553122 0.225909 -11.530326 -48.769587 -111.277227 72.249014 -94.519270 -3.499147 6.763526 -16.651326 -38.670350 10.540486 -0.782000 7.125000 0.000000 0.000000 -8.840600 -28.662100 -3.555700 
12.069477 16.725495 -16.074578 4.821914 -29.639316 -1.079656 7.075541 3.157979 -1.117663 -0.706158 36.373196 -54.398484 15.097321 21.080870 68.432283 2.129472 2.273082 32.877843 0.027100 -1.062000 -2.919500 -5.337981 -4.295124 0.898687 4.276392 -27.607444 -36.261528 -9.350294 -17.222992 54.649182 -0.257902 -3.315816 -0.367761 -0.739900 -5.495000 15.326000 -1.196381 1.127846 23.979454 0.621566 0.412951 -4.692665 -4.871194 0.562837 -22.832494 9.371056 15.871718 6.461789 -5.666852 21.598269 -11.971864 -13.176100 5.242800 -9.426700 -4.467791 -13.221009 -0.663507 -3.397654 19.787125 -50.502196 109.368171 -75.146127 -92.805289 3.768813 -6.403651 -40.163578 36.683618 15.024027 17.679800 -7.125000 0.000000 0.000000 10.732700 58.931100 3.680900 8.513920 9.949098 0.636528 1.116011 -11.771539 -48.528065 -112.413215 71.547545 -94.862332 -3.543468 6.412104 -16.277883 -40.261870 10.198736 -0.727200 7.125000 0.000000 0.000000 -9.910400 -28.772100 -3.971000 
